<svg width="70" height="50" viewBox="0 0 97 81" fill="none" xmlns="http://www.w3.org/2000/svg">
<path d="M40.8432 0.357019C41.8432 3.35702 42.3432 5.85702 42.3432 7.85703C42.3432 9.65703 42.0432 12.057 41.4432 15.057C28.0432 15.057 21.3432 21.957 21.3432 35.757C21.3432 40.757 23.9432 43.557 29.1432 44.157C36.7432 44.757 40.5432 49.657 40.5432 58.857C40.5432 65.857 38.8432 71.257 35.4432 75.057C32.2432 78.657 26.3432 80.457 17.7432 80.457C5.94321 80.457 0.0432136 72.457 0.0432136 56.457C0.0432136 40.457 3.24321 27.157 9.64322 16.557C16.0432 5.75702 26.4432 0.357019 40.8432 0.357019ZM95.1432 0.357019C96.1432 3.35702 96.6432 5.85702 96.6432 7.85703C96.6432 9.65703 96.3432 12.057 95.7432 15.057C82.3432 15.057 75.6432 21.957 75.6432 35.757C75.6432 40.757 78.2432 43.557 83.4432 44.157C91.0432 44.757 94.8432 49.657 94.8432 58.857C94.8432 65.857 93.1432 71.257 89.7432 75.057C86.5432 78.657 80.6432 80.457 72.0432 80.457C60.2432 80.457 54.3432 72.457 54.3432 56.457C54.3432 40.457 57.5432 27.157 63.9432 16.557C70.3432 5.75702 80.7432 0.357019 95.1432 0.357019Z" fill="white"/>
</svg>
